<?xml version="1.0" encoding="UTF-8" standalone="no"?>
<svg
   xmlns:dc="http://purl.org/dc/elements/1.1/"
   xmlns:cc="http://creativecommons.org/ns#"
   xmlns:rdf="http://www.w3.org/1999/02/22-rdf-syntax-ns#"
   xmlns:svg="http://www.w3.org/2000/svg"
   xmlns="http://www.w3.org/2000/svg"
   xmlns:sodipodi="http://sodipodi.sourceforge.net/DTD/sodipodi-0.dtd"
   xmlns:inkscape="http://www.inkscape.org/namespaces/inkscape"
   height="100.0mm"
   viewBox="0 0 100.0 100.0"
   width="100.0mm"
   version="1.1"
   id="svg98"
   sodipodi:docname="NASA_logo.svg"
   inkscape:version="0.92.5 (2060ec1f9f, 2020-04-08)"
   inkscape:export-filename="/home/finn/KiCad-Workspace/nasa-badge/NASA_logo.png"
   inkscape:export-xdpi="96"
   inkscape:export-ydpi="96">
  <metadata
     id="metadata104">
    <rdf:RDF>
      <cc:Work
         rdf:about="">
        <dc:format>image/svg+xml</dc:format>
        <dc:type
           rdf:resource="http://purl.org/dc/dcmitype/StillImage" />
        <dc:title />
      </cc:Work>
    </rdf:RDF>
  </metadata>
  <defs
     id="defs102" />
  <sodipodi:namedview
     pagecolor="#ffffff"
     bordercolor="#666666"
     borderopacity="1"
     objecttolerance="10"
     gridtolerance="10"
     guidetolerance="10"
     inkscape:pageopacity="0"
     inkscape:pageshadow="2"
     inkscape:window-width="1920"
     inkscape:window-height="1043"
     id="namedview100"
     showgrid="true"
     inkscape:zoom="2.3704148"
     inkscape:cx="171.97765"
     inkscape:cy="165.49806"
     inkscape:window-x="0"
     inkscape:window-y="0"
     inkscape:window-maximized="1"
     inkscape:current-layer="g4255"
     inkscape:pagecheckerboard="true"
     showborder="true"
     borderlayer="true"
     inkscape:document-units="mm">
    <inkscape:grid
       spacingx="2.54"
       spacingy="2.54"
       empspacing="1"
       type="xygrid"
       units="mm"
       id="grid4196" />
    <inkscape:grid
       id="grid4325"
       units="mm"
       type="xygrid"
       empspacing="1"
       spacingy="2.54"
       spacingx="2.54" />
  </sodipodi:namedview>
  <g
     inkscape:groupmode="layer"
     id="layer2"
     inkscape:label="Meatball"
     style="display:none">
    <path
       style="fill:#0b3d91;stroke-width:1.01934719"
       d="M 46.483257,18.165718 A 40.916595,40.916595 0 0 0 5.5658589,59.0826 40.916595,40.916595 0 0 0 6.5952534,67.970431 C 19.519249,61.279589 36.138276,56.114976 42.87366,54.005908 c 3.915312,-1.225257 8.555588,-2.875164 13.312881,-4.72426 0.293573,0.355751 0.58589,0.717193 0.874365,1.083138 0.862367,1.084585 1.682023,2.171533 2.458765,3.255097 -3.33938,1.206908 -6.49184,2.196968 -9.183936,2.954343 -7.968236,2.242563 -25.565644,6.362454 -31.008959,8.074959 -3.69177,1.161431 -7.502058,2.248244 -12.4571206,4.549592 A 40.916595,40.916595 0 0 0 18.544395,88.906619 C 23.365793,84.459952 29.111869,79.271637 31.867613,77.369338 36.209012,74.372458 55.29068,61.34555 59.20496,59.0826 c 0.675828,-0.391429 1.64125,-1.011793 2.793114,-1.789554 0.239546,0.381236 0.476559,0.76077 0.706932,1.138947 0.04995,0.08461 0.0994,0.167044 0.149344,0.250631 -3.061099,2.041753 -6.471343,4.273286 -10.25312,6.699332 -3.956087,2.538175 -15.596198,10.459445 -21.222993,14.740702 -3.338354,2.539693 -6.187512,4.606661 -11.979631,9.580296 A 40.916595,40.916595 0 0 0 46.483257,100 40.916595,40.916595 0 0 0 87.40014,59.0826 40.916595,40.916595 0 0 0 84.053573,42.992108 c -1.156888,1.01332 -2.234332,1.928871 -3.073714,2.633948 -3.32613,2.794032 -9.035304,6.971581 -17.518309,12.648324 -0.270129,-0.467878 -0.549717,-0.937746 -0.838192,-1.407665 5.599274,-3.82561 14.78193,-10.687129 17.55965,-13.319085 -5.830665,4.007056 -13.17816,7.316562 -19.875273,9.783384 -0.845036,-1.207929 -1.743371,-2.414463 -2.695442,-3.613216 -0.20183,-0.253818 -0.405395,-0.505254 -0.609264,-0.754994 8.519705,-3.344479 17.301786,-7.285821 22.873538,-10.55181 0.427612,-0.250684 0.910646,-0.540613 1.385962,-0.82579 A 40.916595,40.916595 0 0 0 46.483257,18.165718 Z m 8.28735,5.842537 0.109037,1.135332 c 0.222219,0.02854 0.398402,0.200984 0.434081,0.421163 l 1.138949,0.06408 -1.141015,0.109038 c -0.03975,0.207947 -0.206539,0.36998 -0.417544,0.40566 l -0.06253,1.168404 -0.105937,-1.170471 c -0.199792,-0.0367 -0.358717,-0.190323 -0.401526,-0.387057 l -1.174089,-0.06356 1.16582,-0.105937 c 0.02548,-0.214063 0.183732,-0.386145 0.389642,-0.432015 z m -19.251538,12.698967 0.109037,1.135331 c 0.222219,0.02854 0.399939,0.200984 0.4346,0.421163 l 1.13843,0.06408 -1.140497,0.109037 c -0.03874,0.207946 -0.206026,0.371 -0.417031,0.40566 l -0.06305,1.168404 -0.106452,-1.170471 c -0.199792,-0.0367 -0.358717,-0.190323 -0.401527,-0.387057 l -1.174088,-0.06304 1.16582,-0.106453 c 0.02548,-0.214062 0.183745,-0.386145 0.390673,-0.432015 z m 42.644424,33.575212 0.109038,1.13533 c 0.222218,0.02854 0.399423,0.200985 0.434083,0.421163 l 1.138947,0.06408 -1.140497,0.109037 c -0.03976,0.208966 -0.207031,0.370999 -0.415997,0.405659 l -0.06356,1.168403 -0.105936,-1.169953 c -0.199792,-0.0367 -0.358717,-0.190839 -0.401526,-0.387572 l -1.174089,-0.06305 1.16582,-0.105936 c 0.02548,-0.214062 0.183732,-0.38666 0.389639,-0.432531 z m -3.62355,8.992732 0.109037,1.13533 c 0.222218,0.02854 0.399423,0.200985 0.434081,0.421164 l 1.138433,0.06408 -1.1405,0.109038 c -0.03874,0.207946 -0.207028,0.370985 -0.415993,0.404624 l -0.06305,1.168405 -0.105936,-1.170471 c -0.199793,-0.0367 -0.358715,-0.190323 -0.401524,-0.387057 l -1.174607,-0.06304 1.166339,-0.106453 c 0.02548,-0.214064 0.183213,-0.386146 0.389122,-0.432017 z m -42.873869,8.563301 0.109038,1.134813 c 0.222218,0.02854 0.398401,0.20047 0.434083,0.420648 l 1.138946,0.0646 -1.141015,0.109037 c -0.03874,0.20794 -0.206526,0.370995 -0.416513,0.405655 l -0.06356,1.167887 -0.105937,-1.169953 C 31.421324,89.935477 31.262399,89.78031 31.21959,89.583581 l -1.174089,-0.06305 1.16582,-0.105937 c 0.02548,-0.214061 0.183748,-0.386143 0.390674,-0.432014 z"
       id="circle2"
       inkscape:connector-curvature="0" />
  </g>
  <g
     inkscape:groupmode="layer"
     id="layer6"
     inkscape:label="ShinyStars"
     style="display:none">
    <path
       style="display:inline;fill:#ffffff;stroke-width:1.01934719"
       d="m 55.311818,25.737965 1.14065,-0.10907 -1.138611,-0.06422 c -0.03568,-0.220179 -0.212024,-0.392449 -0.434242,-0.42099 l -0.10907,-1.135552 -0.06524,1.144727 C 54.499399,25.19873 54.3414,25.371 54.315916,25.585063 l -1.166133,0.106012 1.174288,0.0632 c 0.04281,0.196734 0.201831,0.350655 0.401623,0.387351 l 0.106012,1.170211 0.06218,-1.168172 c 0.211005,-0.03568 0.378178,-0.197753 0.417932,-0.4057 z"
       id="path74"
       inkscape:connector-curvature="0" />
    <path
       style="display:inline;fill:#ffffff;stroke-width:1.01934719"
       d="m 36.060427,38.436993 1.140649,-0.109071 -1.13861,-0.06422 c -0.03466,-0.220179 -0.212025,-0.392448 -0.434242,-0.42099 l -0.10907,-1.135553 -0.06422,1.144727 c -0.206928,0.04587 -0.364927,0.218141 -0.39041,0.432203 l -1.166134,0.106013 1.174288,0.0632 c 0.04281,0.196734 0.201831,0.350655 0.401623,0.387352 l 0.106012,1.170211 0.0632,-1.168172 c 0.211005,-0.03466 0.378178,-0.197754 0.416914,-0.4057 z"
       id="path76"
       inkscape:connector-curvature="0" />
    <path
       style="display:inline;fill:#ffffff;stroke-width:1.01934719"
       d="m 78.704817,72.012251 1.14065,-0.10907 -1.138611,-0.06422 c -0.03466,-0.220179 -0.212024,-0.392449 -0.434242,-0.420991 l -0.10907,-1.135552 -0.06422,1.144727 c -0.205908,0.04587 -0.363907,0.21814 -0.38939,0.432203 l -1.166134,0.106012 1.174288,0.0632 c 0.04281,0.196734 0.201831,0.350656 0.401623,0.387352 l 0.106012,1.170211 0.0632,-1.168172 c 0.208966,-0.03466 0.376139,-0.196734 0.415894,-0.4057 z"
       id="path78"
       inkscape:connector-curvature="0" />
    <path
       style="display:inline;fill:#ffffff;stroke-width:1.01934719"
       d="m 32.207294,89.567449 1.14065,-0.109071 -1.138611,-0.06422 c -0.03568,-0.220179 -0.212024,-0.392449 -0.434242,-0.420991 l -0.10907,-1.134533 -0.06422,1.143707 c -0.206927,0.04587 -0.364926,0.218141 -0.39041,0.432203 l -1.166133,0.106013 1.174288,0.0632 c 0.04281,0.196734 0.201831,0.351675 0.401623,0.387352 l 0.106012,1.170211 0.0632,-1.168172 c 0.209986,-0.03466 0.378178,-0.197754 0.416913,-0.405699 z"
       id="path80"
       inkscape:connector-curvature="0" />
    <path
       style="display:inline;fill:#ffffff;stroke-width:1.01934719"
       d="m 75.081038,81.004932 1.14065,-0.10907 -1.138611,-0.06422 c -0.03466,-0.220179 -0.212024,-0.392449 -0.434242,-0.42099 l -0.10907,-1.135553 -0.06422,1.143707 c -0.205908,0.04587 -0.363907,0.218141 -0.389391,0.432204 l -1.166133,0.106012 1.174288,0.0632 c 0.04281,0.196734 0.201831,0.350656 0.401623,0.387352 l 0.106012,1.170211 0.0632,-1.168172 c 0.208967,-0.03364 0.377159,-0.196734 0.415894,-0.404681 z"
       id="path82"
       inkscape:connector-curvature="0" />
  </g>
  <g
     inkscape:groupmode="layer"
     id="layer4"
     inkscape:label="Red"
     style="display:none">
    <path
       d="m 56.133046,49.417104 c -4.747779,1.845398 -9.378568,3.492421 -13.28605,4.715225 C 34.906903,56.618631 13.182279,63.349145 0.059,71.833498 l 1.0986932,0.42727 C 9.153738,67.743918 14.351167,66.324773 19.347169,64.75303 c 5.432428,-1.709078 22.994225,-5.819004 30.946526,-8.057082 2.686712,-0.755861 5.833247,-1.745702 9.165949,-2.950195 -0.775189,-1.0814 -1.593104,-2.16585 -2.453748,-3.248266 -0.287899,-0.365213 -0.579866,-0.725342 -0.87285,-1.080383 z m 5.800692,7.995028 c -1.149558,0.776206 -2.11295,1.395749 -2.787425,1.786394 -3.906464,2.258425 -22.951497,15.259628 -27.284215,18.250515 -4.332715,2.990887 -16.358321,14.34405 -19.898553,17.64013 L 11.841467,96.431 C 23.255669,86.176531 26.836595,83.647501 31.37379,80.195774 36.989334,75.923078 48.60598,68.01859 52.554155,65.485494 c 3.774214,-2.421195 7.178128,-4.648084 10.233105,-6.685752 -0.04985,-0.08343 -0.0997,-0.166839 -0.149544,-0.251277 -0.229912,-0.37742 -0.464909,-0.755859 -0.703978,-1.136333 z M 79.776313,38.567508 c -5.560608,3.259457 -14.324722,7.193391 -22.827386,10.531179 0.203461,0.24924 0.405905,0.500517 0.607334,0.753826 0.950164,1.196354 1.846413,2.400847 2.689762,3.606358 6.683717,-2.461886 14.017495,-5.766104 19.836499,-9.765144 -2.772165,2.626691 -11.937098,9.476229 -17.525174,13.294187 0.287899,0.468979 0.566642,0.937959 0.836229,1.404903 8.46604,-5.665391 14.162968,-9.835339 17.482446,-12.623782 C 85.453912,41.923611 95.8915,33.31718 99.859,21.780902 c -6.959408,8.8516 -15.187398,13.91678 -20.082687,16.786606 z"
       id="path84"
       inkscape:connector-curvature="0"
       style="display:inline;fill:#fc3d21;stroke-width:1.01730847"
       inkscape:export-xdpi="96"
       inkscape:export-ydpi="96" />
  </g>
  <g
     inkscape:groupmode="layer"
     id="layer3"
     inkscape:label="Font"
     style="display:none">
    <g
       style="fill:#ffffff"
       id="g96"
       transform="matrix(1.0193472,0,0,1.0193472,-4.5340564,13.212226)">
      <circle
         cx="47.679001"
         cy="12.57"
         r="0.44999999"
         id="circle4" />
      <circle
         cx="52.299"
         cy="13.17"
         r="0.44999999"
         id="circle6" />
      <circle
         cx="58.359001"
         cy="21.33"
         r="0.44999999"
         id="circle8" />
      <circle
         cx="25.118999"
         cy="63.330002"
         r="0.44999999"
         id="circle10" />
      <circle
         cx="26.289"
         cy="66.93"
         r="0.44999999"
         id="circle12" />
      <circle
         cx="20.709"
         cy="63.869999"
         r="0.33700001"
         id="circle14" />
      <circle
         cx="39.008999"
         cy="70.942001"
         r="0.338"
         id="circle16" />
      <circle
         cx="67.710999"
         cy="64.980003"
         r="0.33700001"
         id="circle18" />
      <circle
         cx="76.052002"
         cy="55.919998"
         r="0.338"
         id="circle20" />
      <circle
         cx="35.168999"
         cy="23.962"
         r="0.33700001"
         id="circle22" />
      <circle
         cx="44.348999"
         cy="17.219999"
         r="0.33700001"
         id="circle24" />
      <circle
         cx="43.352001"
         cy="16.559999"
         r="0.33700001"
         id="circle26" />
      <circle
         cx="42.452"
         cy="15.9"
         r="0.33700001"
         id="circle28" />
      <circle
         cx="36.609001"
         cy="25.702999"
         r="0.33700001"
         id="circle30" />
      <circle
         cx="50.131001"
         cy="8.1599998"
         r="0.33700001"
         id="circle32" />
      <circle
         cx="52.352001"
         cy="17.879999"
         r="0.33700001"
         id="circle34" />
      <circle
         cx="48.848999"
         cy="15.982"
         r="0.33700001"
         id="circle36" />
      <circle
         cx="42.848999"
         cy="18.563"
         r="0.33700001"
         id="circle38" />
      <circle
         cx="69.308998"
         cy="73.883003"
         r="0.33700001"
         id="circle40" />
      <circle
         cx="24.549"
         cy="65.610001"
         r="0.338"
         id="circle42" />
      <circle
         cx="48.008999"
         cy="69.959999"
         r="0.338"
         id="circle44" />
      <circle
         cx="31.531"
         cy="65.339996"
         r="0.338"
         id="circle46" />
      <circle
         cx="34.449001"
         cy="70.102997"
         r="0.338"
         id="circle48" />
      <circle
         cx="55.929001"
         cy="67.102997"
         r="0.33700001"
         id="circle50" />
      <circle
         cx="67.771004"
         cy="60.419998"
         r="0.33700001"
         id="circle52" />
      <circle
         cx="76.749001"
         cy="64.522003"
         r="0.33700001"
         id="circle54" />
      <circle
         cx="79.808998"
         cy="66.480003"
         r="0.33700001"
         id="circle56" />
      <circle
         cx="80.311996"
         cy="61.139999"
         r="0.33700001"
         id="circle58" />
      <circle
         cx="35.671001"
         cy="53.580002"
         r="0.33700001"
         id="circle60" />
      <circle
         cx="35.799"
         cy="61.32"
         r="0.44999999"
         id="circle62" />
      <circle
         cx="38.499001"
         cy="67.019997"
         r="0.44999999"
         id="circle64" />
      <circle
         cx="70.838997"
         cy="61.080002"
         r="0.44999999"
         id="circle66" />
      <circle
         cx="82.478996"
         cy="60.419998"
         r="0.44999999"
         id="circle68" />
      <circle
         cx="76.719002"
         cy="57.959999"
         r="0.44999999"
         id="circle70" />
      <circle
         cx="70.838997"
         cy="58.200001"
         r="0.44999999"
         id="circle72" />
      <path
         d="m 44.884,54.939 c -0.885,-1.114 -2.109,-2.606 -3.028,-3.763 -1.229,-1.547 -2.366,-3.11 -3.408,-4.671 -0.34,0.085 -0.679,0.17 -1.018,0.255 1.258,1.963 2.655,3.923 4.177,5.839 1.112,1.4 2.123,2.527 2.641,3.228 0.105,0.142 0.313,0.456 0.594,0.874 0.324,-0.22 0.651,-0.442 0.981,-0.666 -0.319,-0.347 -0.634,-0.712 -0.939,-1.096 z m 6.46,5.864 c -0.727,-0.688 -2.49,-1.837 -4.325,-3.561 -0.405,0.278 -0.814,0.56 -1.224,0.844 1.185,1.67 2.799,3.721 4.063,4.319 1.904,0.902 2.417,-0.72 1.486,-1.602 z m 9.623,-24.99 C 50.475,22.607 37.658,15.352 32.132,19.743 c -4.292,3.41 -2.53,13.376 3.386,23.845 0.306,-0.105 0.609,-0.208 0.909,-0.31 -5.971,-10.2 -7.605,-19.679 -3.557,-22.896 5.087,-4.042 17.37,3.241 27.558,16.064 2.109,2.654 3.963,5.318 5.533,7.915 6.012,9.95 7.857,18.948 3.703,22.621 -1.271,1.124 -5.155,1.565 -10.243,-0.725 -0.071,0.089 0.043,0.33 0.132,0.389 4.392,1.766 8.599,2.439 10.723,0.752 5.104,-4.056 1.183,-18.379 -9.309,-31.585 z"
         id="path86"
         inkscape:connector-curvature="0" />
      <path
         d="m 15.969,37.38 h 6.72 l 5.64,9.57 c 0,0 0,-6.93 0,-7.47 0,-0.84 -1.065,-1.935 -1.44,-2.1 0.45,0 4.38,0 4.65,0 -0.285,0.075 -1.2,1.185 -1.2,2.1 0,0.45 0,10.5 0,10.98 0,0.675 0.975,1.605 1.44,1.965 h -6.48 l -5.73,-9.615 c 0,0 0,7.17 0,7.56 0,0.75 0.735,1.47 1.5,2.085 h -4.95 c 0.705,-0.3 1.38,-1.245 1.44,-1.995 0.06,-0.75 0,-10.425 0,-10.845 0,-0.915 -0.885,-1.665 -1.59,-2.235 z"
         id="path88"
         inkscape:connector-curvature="0" />
      <path
         d="m 77.439,52.425 h 8.94 c -0.495,-0.12 -1.05,-0.705 -1.35,-1.485 -0.3,-0.78 -5.04,-13.56 -5.04,-13.56 H 76.59 c -0.964,0.694 -1.997,1.426 -3.1,2.197 -0.003,0.028 -0.006,0.056 -0.011,0.083 -0.148,0.9 -2.808,10.534 -2.97,11.01 -0.225,0.66 -1.38,1.395 -1.845,1.785 h 4.815 c -0.48,-0.54 -0.87,-1.065 -0.78,-1.665 0.09,-0.6 0.36,-1.8 0.36,-1.8 h 4.98 c 0.225,0.6 0.393,1.139 0.48,1.65 0.105,0.615 -0.525,1.305 -1.08,1.785 z m -3.93,-5.355 1.68,-5.49 2.22,5.49 z m -0.757,-9.142 c 0.247,-0.182 0.495,-0.365 0.742,-0.548 h -1.305 c 0.13,0.12 0.345,0.309 0.563,0.548 z"
         id="path90"
         inkscape:connector-curvature="0" />
      <path
         d="m 38.559,50.79 c 0.09,-0.6 0.36,-1.8 0.36,-1.8 h 4.98 c 0.225,0.6 0.393,1.139 0.48,1.65 0.105,0.615 -0.525,1.305 -1.08,1.785 h 7.871 c 0.164,-0.11 0.327,-0.22 0.49,-0.329 -0.305,-0.27 -0.586,-0.675 -0.771,-1.156 -0.3,-0.78 -5.04,-13.56 -5.04,-13.56 h -7.8 c 0.375,0.345 1.455,1.275 1.29,2.28 -0.147,0.9 -2.808,10.534 -2.97,11.01 -0.225,0.66 -1.38,1.395 -1.845,1.785 h 4.815 c -0.48,-0.54 -0.87,-1.065 -0.78,-1.665 z m 2.49,-9.21 2.22,5.49 h -3.9 z"
         id="path92"
         inkscape:connector-curvature="0" />
      <path
         d="m 65.748,44.848 c -1.468,0.978 -3.017,1.999 -4.649,3.065 0.732,0.355 1.315,0.801 1.371,1.377 0.104,1.082 -2.07,1.605 -4.035,1.38 -0.393,-0.045 -0.779,-0.148 -1.147,-0.286 -0.408,0.263 -0.82,0.528 -1.238,0.796 -0.425,0.273 -0.941,0.609 -1.53,0.997 v 1.553 c 0.39,-0.765 1.243,-1.45 1.905,-1.485 0.285,-0.015 1.275,0.9 5.355,0.675 1.98,-0.109 5.805,-2.22 5.745,-4.65 -0.036,-1.436 -0.786,-2.556 -1.777,-3.422 z M 54.519,48.6 v 1.582 c 0.361,-0.241 0.717,-0.478 1.066,-0.709 -0.549,-0.382 -0.938,-0.739 -1.066,-0.873 z m 9.834,-4.745 c -0.38,-0.225 -0.765,-0.422 -1.134,-0.596 -1.92,-0.9 -3.93,-1.065 -4.35,-2.28 -0.296,-0.857 0.54,-1.65 2.58,-1.62 2.04,0.03 3.93,1.245 4.44,1.68 v -3.87 c -0.15,0.15 -0.808,0.905 -1.41,0.78 -1.155,-0.24 -3.12,-0.553 -5.37,-0.54 -2.58,0.015 -4.8,2.009 -4.875,4.53 -0.105,3.525 2.715,4.485 4.305,5.04 0.164,0.057 0.351,0.118 0.554,0.183 1.525,-0.992 2.731,-1.756 3.437,-2.163 0.474,-0.273 1.095,-0.665 1.823,-1.144 z"
         id="path94"
         inkscape:connector-curvature="0" />
    </g>
  </g>
  <g
     id="g4253"
     inkscape:groupmode="layer"
     inkscape:label="[fixed] BG"
     style="display:none"
     sodipodi:insensitive="true">
    <rect
       id="rect4251"
       style="fill:#ffffff;fill-opacity:1;stroke:none"
       height="100"
       width="100"
       y="0"
       x="0" />
  </g>
  <g
     id="g4255"
     inkscape:groupmode="layer"
     inkscape:label="F.Cu"
     style="display:inline">
    <path
       style="display:inline;fill:#803300;stroke-width:3.84039807"
       d="M 200.20508,71.847656 21.859375,211.8457 c -0.325785,3.97558 -0.497138,7.96231 -0.513672,11.95118 0.06509,11.26969 1.365835,22.49826 3.878906,33.48437 48.691251,-25.20779 111.304081,-44.6654 136.679691,-52.61133 14.75096,-4.61616 32.23311,-10.83234 50.15625,-17.79883 1.10603,1.3403 2.20613,2.70138 3.29297,4.08008 3.24897,4.08619 6.33729,8.18134 9.26367,12.26367 -12.58114,4.54704 -24.45712,8.27745 -34.59961,11.13086 -30.02039,8.44888 -96.318446,23.97001 -116.826174,30.42188 -13.908771,4.3757 -28.265358,8.47027 -46.933594,17.14062 7.293224,28.43289 22.552734,54.19246 43.984376,74.25 18.164647,-16.75285 39.813022,-36.29987 50.195312,-43.46679 16.35625,-11.29077 88.24706,-60.3689 102.99414,-68.89453 2.54619,-1.47472 6.18378,-3.81197 10.52344,-6.74219 0.90249,1.43631 1.79613,2.86623 2.66406,4.29101 0.18818,0.31877 0.37432,0.62845 0.5625,0.94336 -11.53271,7.69232 -24.38103,16.10008 -38.62891,25.24024 -14.90458,9.56258 -58.75999,39.40548 -79.95898,55.53515 -12.57727,9.56832 -23.310966,17.35555 -45.132812,36.09375 17.549438,15.46712 38.388822,26.7374 60.939452,32.95703 v -51.76171 l -3.9e-4,-9.60076 4.46959,0 180.439,-141.54378 c -0.71114,-2.02659 -1.46456,-4.03809 -2.25976,-6.0332 -4.35859,3.81769 -8.4177,7.26549 -11.58008,9.92188 -12.53122,10.52653 -34.04022,26.26712 -66,47.65429 -1.01771,-1.76273 -2.07137,-3.53426 -3.1582,-5.30468 21.09531,-14.41302 55.69117,-40.26378 66.15625,-50.17969 -21.96707,15.09661 -49.64944,27.56561 -74.88086,36.85937 -3.18368,-4.55087 -6.56737,-9.09697 -10.1543,-13.61328 -0.76039,-0.95625 -1.52684,-1.90285 -2.29492,-2.84375 32.09805,-12.60034 65.18416,-27.44926 86.17578,-39.7539 1.61103,-0.94446 3.42995,-2.03693 5.2207,-3.11133 -6.1625,-9.85002 -13.41887,-18.97176 -21.63086,-27.19141 l -67.48632,52.97656 -31.14258,-39.67187 55.76953,-43.779298 C 228.80246,78.735156 214.71368,74.259447 200.20508,71.847656 Z m 6.51953,19.804688 0.41211,4.279297 c 0.83721,0.107527 1.50034,0.75641 1.63476,1.585937 l 4.29102,0.242188 -4.29883,0.410156 c -0.14974,0.783443 -0.7773,1.392917 -1.57226,1.527344 l -0.23633,4.402344 -0.39844,-4.410157 c -0.75272,-0.138255 -1.35239,-0.715832 -1.51367,-1.457031 l -4.42383,-0.240234 4.39258,-0.398438 c 0.096,-0.806483 0.69298,-1.456087 1.46875,-1.628906 z m -72.5293,47.843746 0.41016,4.27735 c 0.83721,0.10753 1.50808,0.75836 1.63867,1.58789 l 4.28906,0.24023 -4.29687,0.41211 c -0.14597,0.78344 -0.7773,1.39676 -1.57227,1.52735 l -0.23633,4.40234 -0.40234,-4.41016 c -0.75272,-0.13825 -1.35043,-0.71583 -1.51172,-1.45703 l -4.42383,-0.23828 4.39258,-0.40039 c 0.096,-0.80648 0.69114,-1.45609 1.4707,-1.62891 z m 195.43555,85.72657 -75.26563,59.08203 34.38672,43.80273 c 25.89585,-28.05002 40.46231,-64.71115 40.87891,-102.88476 z m -34.77344,40.76953 0.41211,4.27734 c 0.83721,0.10753 1.50418,0.75641 1.63477,1.58594 l 4.29101,0.24219 -4.29687,0.41015 c -0.14979,0.78728 -0.77913,1.39871 -1.56641,1.5293 l -0.24023,4.40039 -0.39844,-4.40625 c -0.75272,-0.13822 -1.35239,-0.71974 -1.51367,-1.46094 l -4.42383,-0.23828 4.39258,-0.39844 c 0.096,-0.80648 0.69299,-1.45608 1.46875,-1.6289 z m -13.65039,33.8789 0.41016,4.27735 c 0.8372,0.10753 1.50419,0.75836 1.63476,1.58789 l 4.28907,0.24023 -4.29688,0.41211 c -0.14596,0.78344 -0.77913,1.3967 -1.56641,1.52344 l -0.23828,4.40234 -0.39843,-4.41015 c -0.75272,-0.13826 -1.35239,-0.71584 -1.51368,-1.45703 l -4.42382,-0.23829 4.39453,-0.40039 c 0.096,-0.80648 0.68908,-1.45609 1.46484,-1.6289 z m -161.52734,32.26368 0.41015,4.27539 c 0.83721,0.10752 1.50034,0.75445 1.63477,1.58398 l 4.29101,0.24414 -4.29882,0.41016 c -0.14597,0.78343 -0.77724,1.39871 -1.56836,1.52929 l -0.24024,4.39844 -0.39843,-4.40625 c -0.75272,-0.1344 -1.3524,-0.71976 -1.51368,-1.46094 l -4.42187,-0.23828 4.39062,-0.39843 c 0.096,-0.80648 0.69306,-1.45414 1.47266,-1.62696 z"
       transform="scale(0.26458333)"
       id="path4522"
       inkscape:connector-curvature="0"
       sodipodi:nodetypes="ccccccccccccscccccccccccccccccccccccccccccccccccccccccccccccccccccccccccccccccccccccccccccccccccccccccccccccc" />
    <g
       transform="matrix(1.0161053,0,0,1.0161053,-4.4199545,13.488243)"
       id="g4518"
       style="display:inline;fill:#803300">
      <circle
         id="circle4440"
         r="0.44999999"
         cy="13.17"
         cx="52.299"
         style="fill:#803300" />
      <circle
         id="circle4444"
         r="0.44999999"
         cy="63.330002"
         cx="25.118999"
         style="fill:#803300" />
      <circle
         id="circle4446"
         r="0.44999999"
         cy="66.93"
         cx="26.289"
         style="fill:#803300" />
      <circle
         id="circle4448"
         r="0.33700001"
         cy="63.869999"
         cx="20.709"
         style="fill:#803300" />
      <circle
         id="circle4450"
         r="0.338"
         cy="70.942001"
         cx="39.008999"
         style="fill:#803300" />
      <circle
         id="circle4456"
         r="0.33700001"
         cy="23.962"
         cx="35.168999"
         style="fill:#803300" />
      <circle
         id="circle4458"
         r="0.33700001"
         cy="17.219999"
         cx="44.348999"
         style="fill:#803300" />
      <circle
         id="circle4460"
         r="0.33700001"
         cy="16.559999"
         cx="43.352001"
         style="fill:#803300" />
      <circle
         id="circle4464"
         r="0.33700001"
         cy="25.702999"
         cx="36.609001"
         style="fill:#803300" />
      <circle
         id="circle4468"
         r="0.33700001"
         cy="17.879999"
         cx="52.352001"
         style="fill:#803300" />
      <circle
         id="circle4470"
         r="0.33700001"
         cy="15.982"
         cx="48.848999"
         style="fill:#803300" />
      <circle
         id="circle4472"
         r="0.33700001"
         cy="18.563"
         cx="42.848999"
         style="fill:#803300" />
      <circle
         id="circle4476"
         r="0.338"
         cy="65.610001"
         cx="24.549"
         style="fill:#803300" />
      <circle
         id="circle4480"
         r="0.338"
         cy="65.339996"
         cx="31.531"
         style="fill:#803300" />
      <circle
         id="circle4482"
         r="0.338"
         cy="70.102997"
         cx="34.449001"
         style="fill:#803300" />
      <circle
         id="circle4488"
         r="0.33700001"
         cy="64.522003"
         cx="76.749001"
         style="fill:#803300" />
      <circle
         id="circle4490"
         r="0.33700001"
         cy="66.480003"
         cx="79.808998"
         style="fill:#803300" />
      <circle
         id="circle4492"
         r="0.33700001"
         cy="61.139999"
         cx="80.311996"
         style="fill:#803300" />
      <circle
         id="circle4494"
         r="0.33700001"
         cy="53.580002"
         cx="35.671001"
         style="fill:#803300" />
      <circle
         id="circle4496"
         r="0.44999999"
         cy="61.32"
         cx="35.799"
         style="fill:#803300" />
      <circle
         id="circle4498"
         r="0.44999999"
         cy="67.019997"
         cx="38.499001"
         style="fill:#803300" />
      <circle
         id="circle4502"
         r="0.44999999"
         cy="60.419998"
         cx="82.478996"
         style="fill:#803300" />
      <circle
         id="circle4504"
         r="0.44999999"
         cy="57.959999"
         cx="76.719002"
         style="fill:#803300" />
      <path
         inkscape:connector-curvature="0"
         id="path4510"
         d="m 15.969,37.38 h 6.72 l 5.64,9.57 c 0,0 0,-6.93 0,-7.47 0,-0.84 -1.065,-1.935 -1.44,-2.1 0.45,0 4.38,0 4.65,0 -0.285,0.075 -1.2,1.185 -1.2,2.1 0,0.45 0,10.5 0,10.98 0,0.675 0.975,1.605 1.44,1.965 h -6.48 l -5.73,-9.615 c 0,0 0,7.17 0,7.56 0,0.75 0.735,1.47 1.5,2.085 h -4.95 c 0.705,-0.3 1.38,-1.245 1.44,-1.995 0.06,-0.75 0,-10.425 0,-10.845 0,-0.915 -0.885,-1.665 -1.59,-2.235 z"
         style="fill:#803300" />
      <path
         inkscape:connector-curvature="0"
         id="path4514"
         d="m 38.559,50.79 c 0.09,-0.6 0.36,-1.8 0.36,-1.8 h 4.98 c 0.225,0.6 0.393,1.139 0.48,1.65 0.105,0.615 -0.525,1.305 -1.08,1.785 h 7.871 c 0.164,-0.11 0.327,-0.22 0.49,-0.329 -0.305,-0.27 -0.586,-0.675 -0.771,-1.156 -0.3,-0.78 -5.04,-13.56 -5.04,-13.56 h -7.8 c 0.375,0.345 1.455,1.275 1.29,2.28 -0.147,0.9 -2.808,10.534 -2.97,11.01 -0.225,0.66 -1.38,1.395 -1.845,1.785 h 4.815 c -0.48,-0.54 -0.87,-1.065 -0.78,-1.665 z m 2.49,-9.21 2.22,5.49 h -3.9 z"
         style="fill:#803300" />
      <path
         inkscape:connector-curvature="0"
         id="path4516"
         d="m 65.748,44.848 c -1.468,0.978 -3.017,1.999 -4.649,3.065 0.732,0.355 1.315,0.801 1.371,1.377 0.104,1.082 -2.07,1.605 -4.035,1.38 -0.393,-0.045 -0.779,-0.148 -1.147,-0.286 -0.408,0.263 -0.82,0.528 -1.238,0.796 -0.425,0.273 -0.941,0.609 -1.53,0.997 v 1.553 c 0.39,-0.765 1.243,-1.45 1.905,-1.485 0.285,-0.015 -2.370456,-0.502098 1.709544,-0.727098 1.98,-0.109 7.848058,-2.6206 7.788058,-5.0506 C 65.886602,45.031302 66.739,45.714 65.748,44.848 Z M 54.519,48.6 v 1.582 c 0.361,-0.241 0.717,-0.478 1.066,-0.709 -0.549,-0.382 -0.938,-0.739 -1.066,-0.873 z m 9.834,-4.745 c -0.38,-0.225 -0.765,-0.422 -1.134,-0.596 -1.92,-0.9 -3.93,-1.065 -4.35,-2.28 -0.296,-0.857 0.54,-1.65 2.58,-1.62 2.04,0.03 3.93,1.245 4.44,1.68 v -3.87 c -0.15,0.15 -0.808,0.905 -1.41,0.78 -1.155,-0.24 -3.12,-0.553 -5.37,-0.54 -2.58,0.015 -4.8,2.009 -4.875,4.53 -0.105,3.525 2.715,4.485 4.305,5.04 0.164,0.057 0.351,0.118 0.554,0.183 1.525,-0.992 2.731,-1.756 3.437,-2.163 0.474,-0.273 1.095,-0.665 1.823,-1.144 z"
         style="fill:#803300"
         sodipodi:nodetypes="cccscccccccccccccccsccccccccc" />
    </g>
  </g>
  <g
     id="g4257"
     inkscape:groupmode="layer"
     inkscape:label="B.Cu-disabled"
     style="display:none"
     sodipodi:insensitive="true" />
  <g
     id="g4259"
     inkscape:groupmode="layer"
     inkscape:label="B.Adhes-disabled"
     style="display:none"
     sodipodi:insensitive="true" />
  <g
     id="g4261"
     inkscape:groupmode="layer"
     inkscape:label="F.Adhes-disabled"
     style="display:none"
     sodipodi:insensitive="true" />
  <g
     id="g4263"
     inkscape:groupmode="layer"
     inkscape:label="B.Paste-disabled"
     style="display:none"
     sodipodi:insensitive="true" />
  <g
     id="g4265"
     inkscape:groupmode="layer"
     inkscape:label="F.Paste-disabled"
     style="display:none"
     sodipodi:insensitive="true" />
  <g
     id="g4267"
     inkscape:groupmode="layer"
     inkscape:label="B.SilkS-disabled"
     style="display:none"
     sodipodi:insensitive="true" />
  <g
     id="g4269"
     inkscape:groupmode="layer"
     inkscape:label="F.SilkS"
     style="display:none">
    <path
       inkscape:connector-curvature="0"
       id="path5823"
       d="m 55.235589,25.974145 1.137022,-0.108723 -1.13499,-0.06402 c -0.03557,-0.219479 -0.211349,-0.391201 -0.432861,-0.419651 l -0.108723,-1.131941 -0.06503,1.141087 c -0.205252,0.04572 -0.362748,0.217446 -0.388151,0.430828 l -1.162424,0.105675 1.170553,0.063 c 0.04267,0.196108 0.201189,0.34954 0.400346,0.386119 l 0.105675,1.166489 0.06198,-1.164457 c 0.210334,-0.03557 0.376975,-0.197124 0.416603,-0.404409 z"
       style="display:inline;fill:#333333;stroke-width:1.01610529"
       inkscape:export-xdpi="96"
       inkscape:export-ydpi="96" />
    <path
       inkscape:connector-curvature="0"
       id="path5825"
       d="m 36.045424,38.632785 1.137021,-0.108724 -1.134989,-0.06402 c -0.03455,-0.219478 -0.21135,-0.391199 -0.43286,-0.419651 l -0.108724,-1.131941 -0.06402,1.141086 c -0.20627,0.04572 -0.363767,0.217447 -0.389169,0.430829 l -1.162425,0.105675 1.170553,0.063 c 0.04267,0.196109 0.201189,0.34954 0.400346,0.38612 l 0.105675,1.16649 0.063,-1.164457 c 0.210334,-0.03455 0.376975,-0.197125 0.415588,-0.40441 z"
       style="display:inline;fill:#333333;stroke-width:1.01610529"
       inkscape:export-xdpi="96"
       inkscape:export-ydpi="96" />
    <path
       inkscape:connector-curvature="0"
       id="path5827"
       d="m 78.55419,72.101262 1.137022,-0.108723 -1.13499,-0.06402 c -0.03455,-0.219479 -0.21135,-0.391201 -0.432861,-0.419652 l -0.108723,-1.131941 -0.06402,1.141087 c -0.205253,0.04572 -0.362749,0.217446 -0.388151,0.430828 l -1.162426,0.105675 1.170554,0.063 c 0.04267,0.196108 0.201189,0.349541 0.400345,0.38612 l 0.105675,1.16649 0.063,-1.164457 c 0.208302,-0.03455 0.374943,-0.196109 0.414572,-0.40441 z"
       style="display:inline;fill:#333333;stroke-width:1.01610529"
       inkscape:export-xdpi="96"
       inkscape:export-ydpi="96" />
    <path
       inkscape:connector-curvature="0"
       id="path5829"
       d="m 32.204545,89.600628 1.137023,-0.108724 -1.13499,-0.06402 c -0.03557,-0.219478 -0.21135,-0.391201 -0.432861,-0.419652 l -0.108723,-1.130925 -0.06402,1.14007 c -0.206269,0.04572 -0.363765,0.217447 -0.389168,0.430829 l -1.162425,0.105675 1.170554,0.063 c 0.04267,0.196109 0.201189,0.350557 0.400345,0.38612 l 0.105675,1.16649 0.063,-1.164457 c 0.209318,-0.03455 0.376976,-0.197125 0.415587,-0.404409 z"
       style="display:inline;fill:#333333;stroke-width:1.01610529"
       inkscape:export-xdpi="96"
       inkscape:export-ydpi="96" />
    <path
       inkscape:connector-curvature="0"
       id="path5831"
       d="m 74.941936,81.065343 1.137022,-0.108723 -1.13499,-0.06402 c -0.03455,-0.219479 -0.21135,-0.391201 -0.432861,-0.419651 l -0.108723,-1.131941 -0.06402,1.140069 c -0.205253,0.04572 -0.362749,0.217447 -0.388152,0.43083 l -1.162425,0.105674 1.170554,0.063 c 0.04267,0.196109 0.201189,0.349541 0.400345,0.386121 l 0.105675,1.166489 0.063,-1.164457 c 0.208303,-0.03353 0.37596,-0.196108 0.414572,-0.403394 z"
       style="display:inline;fill:#333333;stroke-width:1.01610529"
       inkscape:export-xdpi="96"
       inkscape:export-ydpi="96" />
    <g
       transform="matrix(1.0161053,0,0,1.0161053,-4.4199545,13.488242)"
       id="g5819"
       style="display:inline;fill:#333333"
       inkscape:export-xdpi="96"
       inkscape:export-ydpi="96">
      <circle
         id="circle5739"
         r="0.44999999"
         cy="12.57"
         cx="47.679001"
         style="fill:#333333" />
      <circle
         id="circle5741"
         r="0.44999999"
         cy="13.17"
         cx="52.299"
         style="fill:#333333" />
      <circle
         id="circle5743"
         r="0.44999999"
         cy="21.33"
         cx="58.359001"
         style="fill:#333333" />
      <circle
         id="circle5745"
         r="0.44999999"
         cy="63.330002"
         cx="25.118999"
         style="fill:#333333" />
      <circle
         id="circle5747"
         r="0.44999999"
         cy="66.93"
         cx="26.289"
         style="fill:#333333" />
      <circle
         id="circle5749"
         r="0.33700001"
         cy="63.869999"
         cx="20.709"
         style="fill:#333333" />
      <circle
         id="circle5751"
         r="0.338"
         cy="70.942001"
         cx="39.008999"
         style="fill:#333333" />
      <circle
         id="circle5753"
         r="0.33700001"
         cy="64.980003"
         cx="67.710999"
         style="fill:#333333" />
      <circle
         id="circle5755"
         r="0.338"
         cy="55.919998"
         cx="76.052002"
         style="fill:#333333" />
      <circle
         id="circle5757"
         r="0.33700001"
         cy="23.962"
         cx="35.168999"
         style="fill:#333333" />
      <circle
         id="circle5759"
         r="0.33700001"
         cy="17.219999"
         cx="44.348999"
         style="fill:#333333" />
      <circle
         id="circle5761"
         r="0.33700001"
         cy="16.559999"
         cx="43.352001"
         style="fill:#333333" />
      <circle
         id="circle5763"
         r="0.33700001"
         cy="15.9"
         cx="42.452"
         style="fill:#333333" />
      <circle
         id="circle5765"
         r="0.33700001"
         cy="25.702999"
         cx="36.609001"
         style="fill:#333333" />
      <circle
         id="circle5767"
         r="0.33700001"
         cy="8.1599998"
         cx="50.131001"
         style="fill:#333333" />
      <circle
         id="circle5769"
         r="0.33700001"
         cy="17.879999"
         cx="52.352001"
         style="fill:#333333" />
      <circle
         id="circle5771"
         r="0.33700001"
         cy="15.982"
         cx="48.848999"
         style="fill:#333333" />
      <circle
         id="circle5773"
         r="0.33700001"
         cy="18.563"
         cx="42.848999"
         style="fill:#333333" />
      <circle
         id="circle5775"
         r="0.33700001"
         cy="73.883003"
         cx="69.308998"
         style="fill:#333333" />
      <circle
         id="circle5777"
         r="0.338"
         cy="65.610001"
         cx="24.549"
         style="fill:#333333" />
      <circle
         id="circle5779"
         r="0.338"
         cy="69.959999"
         cx="48.008999"
         style="fill:#333333" />
      <circle
         id="circle5781"
         r="0.338"
         cy="65.339996"
         cx="31.531"
         style="fill:#333333" />
      <circle
         id="circle5783"
         r="0.338"
         cy="70.102997"
         cx="34.449001"
         style="fill:#333333" />
      <circle
         id="circle5785"
         r="0.33700001"
         cy="67.102997"
         cx="55.929001"
         style="fill:#333333" />
      <circle
         id="circle5787"
         r="0.33700001"
         cy="60.419998"
         cx="67.771004"
         style="fill:#333333" />
      <circle
         id="circle5789"
         r="0.33700001"
         cy="64.522003"
         cx="76.749001"
         style="fill:#333333" />
      <circle
         id="circle5791"
         r="0.33700001"
         cy="66.480003"
         cx="79.808998"
         style="fill:#333333" />
      <circle
         id="circle5793"
         r="0.33700001"
         cy="61.139999"
         cx="80.311996"
         style="fill:#333333" />
      <circle
         id="circle5795"
         r="0.33700001"
         cy="53.580002"
         cx="35.671001"
         style="fill:#333333" />
      <circle
         id="circle5797"
         r="0.44999999"
         cy="61.32"
         cx="35.799"
         style="fill:#333333" />
      <circle
         id="circle5799"
         r="0.44999999"
         cy="67.019997"
         cx="38.499001"
         style="fill:#333333" />
      <circle
         id="circle5801"
         r="0.44999999"
         cy="61.080002"
         cx="70.838997"
         style="fill:#333333" />
      <circle
         id="circle5803"
         r="0.44999999"
         cy="60.419998"
         cx="82.478996"
         style="fill:#333333" />
      <circle
         id="circle5805"
         r="0.44999999"
         cy="57.959999"
         cx="76.719002"
         style="fill:#333333" />
      <circle
         id="circle5807"
         r="0.44999999"
         cy="58.200001"
         cx="70.838997"
         style="fill:#333333" />
      <path
         inkscape:connector-curvature="0"
         id="path5809"
         d="m 44.884,54.939 c -0.885,-1.114 -2.109,-2.606 -3.028,-3.763 -1.229,-1.547 -2.366,-3.11 -3.408,-4.671 -0.34,0.085 -0.679,0.17 -1.018,0.255 1.258,1.963 2.655,3.923 4.177,5.839 1.112,1.4 2.123,2.527 2.641,3.228 0.105,0.142 0.313,0.456 0.594,0.874 0.324,-0.22 0.651,-0.442 0.981,-0.666 -0.319,-0.347 -0.634,-0.712 -0.939,-1.096 z m 6.46,5.864 c -0.727,-0.688 -2.49,-1.837 -4.325,-3.561 -0.405,0.278 -0.814,0.56 -1.224,0.844 1.185,1.67 2.799,3.721 4.063,4.319 1.904,0.902 2.417,-0.72 1.486,-1.602 z m 9.623,-24.99 C 50.475,22.607 37.658,15.352 32.132,19.743 c -4.292,3.41 -2.53,13.376 3.386,23.845 0.306,-0.105 0.609,-0.208 0.909,-0.31 -5.971,-10.2 -7.605,-19.679 -3.557,-22.896 5.087,-4.042 17.37,3.241 27.558,16.064 2.109,2.654 3.963,5.318 5.533,7.915 6.012,9.95 7.857,18.948 3.703,22.621 -1.271,1.124 -5.155,1.565 -10.243,-0.725 -0.071,0.089 0.043,0.33 0.132,0.389 4.392,1.766 8.599,2.439 10.723,0.752 5.104,-4.056 1.183,-18.379 -9.309,-31.585 z"
         style="fill:#333333" />
      <path
         inkscape:connector-curvature="0"
         id="path5811"
         d="m 15.969,37.38 h 6.72 l 5.64,9.57 c 0,0 0,-6.93 0,-7.47 0,-0.84 -1.065,-1.935 -1.44,-2.1 0.45,0 4.38,0 4.65,0 -0.285,0.075 -1.2,1.185 -1.2,2.1 0,0.45 0,10.5 0,10.98 0,0.675 0.975,1.605 1.44,1.965 h -6.48 l -5.73,-9.615 c 0,0 0,7.17 0,7.56 0,0.75 0.735,1.47 1.5,2.085 h -4.95 c 0.705,-0.3 1.38,-1.245 1.44,-1.995 0.06,-0.75 0,-10.425 0,-10.845 0,-0.915 -0.885,-1.665 -1.59,-2.235 z"
         style="fill:#333333" />
      <path
         inkscape:connector-curvature="0"
         id="path5813"
         d="m 77.439,52.425 h 8.94 c -0.495,-0.12 -1.05,-0.705 -1.35,-1.485 -0.3,-0.78 -5.04,-13.56 -5.04,-13.56 H 76.59 c -0.964,0.694 -1.997,1.426 -3.1,2.197 -0.003,0.028 -0.006,0.056 -0.011,0.083 -0.148,0.9 -2.808,10.534 -2.97,11.01 -0.225,0.66 -1.38,1.395 -1.845,1.785 h 4.815 c -0.48,-0.54 -0.87,-1.065 -0.78,-1.665 0.09,-0.6 0.36,-1.8 0.36,-1.8 h 4.98 c 0.225,0.6 0.393,1.139 0.48,1.65 0.105,0.615 -0.525,1.305 -1.08,1.785 z m -3.93,-5.355 1.68,-5.49 2.22,5.49 z m -0.757,-9.142 c 0.247,-0.182 0.495,-0.365 0.742,-0.548 h -1.305 c 0.13,0.12 0.345,0.309 0.563,0.548 z"
         style="fill:#333333" />
      <path
         inkscape:connector-curvature="0"
         id="path5815"
         d="m 38.559,50.79 c 0.09,-0.6 0.36,-1.8 0.36,-1.8 h 4.98 c 0.225,0.6 0.393,1.139 0.48,1.65 0.105,0.615 -0.525,1.305 -1.08,1.785 h 7.871 c 0.164,-0.11 0.327,-0.22 0.49,-0.329 -0.305,-0.27 -0.586,-0.675 -0.771,-1.156 -0.3,-0.78 -5.04,-13.56 -5.04,-13.56 h -7.8 c 0.375,0.345 1.455,1.275 1.29,2.28 -0.147,0.9 -2.808,10.534 -2.97,11.01 -0.225,0.66 -1.38,1.395 -1.845,1.785 h 4.815 c -0.48,-0.54 -0.87,-1.065 -0.78,-1.665 z m 2.49,-9.21 2.22,5.49 h -3.9 z"
         style="fill:#333333" />
      <path
         inkscape:connector-curvature="0"
         id="path5817"
         d="m 65.748,44.848 c -1.468,0.978 -3.017,1.999 -4.649,3.065 0.732,0.355 1.315,0.801 1.371,1.377 0.104,1.082 -2.07,1.605 -4.035,1.38 -0.393,-0.045 -0.779,-0.148 -1.147,-0.286 -0.408,0.263 -0.82,0.528 -1.238,0.796 -0.425,0.273 -0.941,0.609 -1.53,0.997 v 1.553 c 0.39,-0.765 1.243,-1.45 1.905,-1.485 0.285,-0.015 1.275,0.9 5.355,0.675 1.98,-0.109 5.805,-2.22 5.745,-4.65 -0.036,-1.436 -0.786,-2.556 -1.777,-3.422 z M 54.519,48.6 v 1.582 c 0.361,-0.241 0.717,-0.478 1.066,-0.709 -0.549,-0.382 -0.938,-0.739 -1.066,-0.873 z m 9.834,-4.745 c -0.38,-0.225 -0.765,-0.422 -1.134,-0.596 -1.92,-0.9 -3.93,-1.065 -4.35,-2.28 -0.296,-0.857 0.54,-1.65 2.58,-1.62 2.04,0.03 3.93,1.245 4.44,1.68 v -3.87 c -0.15,0.15 -0.808,0.905 -1.41,0.78 -1.155,-0.24 -3.12,-0.553 -5.37,-0.54 -2.58,0.015 -4.8,2.009 -4.875,4.53 -0.105,3.525 2.715,4.485 4.305,5.04 0.164,0.057 0.351,0.118 0.554,0.183 1.525,-0.992 2.731,-1.756 3.437,-2.163 0.474,-0.273 1.095,-0.665 1.823,-1.144 z"
         style="fill:#333333" />
    </g>
    <path
       inkscape:export-ydpi="96"
       inkscape:export-xdpi="96"
       style="display:inline;fill:#fc3d21;stroke-width:1.01730847"
       inkscape:connector-curvature="0"
       id="path348"
       d="m 56.133046,49.417104 c -4.747779,1.845398 -9.378568,3.492421 -13.28605,4.715225 C 34.906903,56.618631 13.182279,63.349145 0.059,71.833498 l 1.0986932,0.42727 C 9.153738,67.743918 14.351167,66.324773 19.347169,64.75303 c 5.432428,-1.709078 22.994225,-5.819004 30.946526,-8.057082 2.686712,-0.755861 5.833247,-1.745702 9.165949,-2.950195 -0.775189,-1.0814 -1.593104,-2.16585 -2.453748,-3.248266 -0.287899,-0.365213 -0.579866,-0.725342 -0.87285,-1.080383 z m 5.800692,7.995028 c -1.149558,0.776206 -2.11295,1.395749 -2.787425,1.786394 -3.906464,2.258425 -22.951497,15.259628 -27.284215,18.250515 -4.332715,2.990887 -16.358321,14.34405 -19.898553,17.64013 L 11.841467,96.431 C 23.255669,86.176531 26.836595,83.647501 31.37379,80.195774 36.989334,75.923078 48.60598,68.01859 52.554155,65.485494 c 3.774214,-2.421195 7.178128,-4.648084 10.233105,-6.685752 -0.04985,-0.08343 -0.0997,-0.166839 -0.149544,-0.251277 -0.229912,-0.37742 -0.464909,-0.755859 -0.703978,-1.136333 z M 79.776313,38.567508 c -5.560608,3.259457 -14.324722,7.193391 -22.827386,10.531179 0.203461,0.24924 0.405905,0.500517 0.607334,0.753826 0.950164,1.196354 1.846413,2.400847 2.689762,3.606358 6.683717,-2.461886 14.017495,-5.766104 19.836499,-9.765144 -2.772165,2.626691 -11.937098,9.476229 -17.525174,13.294187 0.287899,0.468979 0.566642,0.937959 0.836229,1.404903 8.46604,-5.665391 14.162968,-9.835339 17.482446,-12.623782 C 85.453912,41.923611 95.8915,33.31718 99.859,21.780902 c -6.959408,8.8516 -15.187398,13.91678 -20.082687,16.786606 z" />
  </g>
  <g
     id="g4271"
     inkscape:groupmode="layer"
     inkscape:label="B.Mask-disabled"
     style="display:none"
     sodipodi:insensitive="true" />
  <g
     id="g4273"
     inkscape:groupmode="layer"
     inkscape:label="F.Mask-invert"
     style="display:none">
    <path
       id="path4522-5"
       d="M 46.435267,18.425979 A 40.786465,40.786465 0 0 0 5.648,59.21273 40.786465,40.786465 0 0 0 6.674121,68.072295 c 12.882893,-6.669561 29.449064,-11.817749 36.163027,-13.92011 3.902861,-1.221362 8.528381,-2.86602 13.270542,-4.709237 0.29264,0.354621 0.584026,0.714912 0.871585,1.079693 0.859624,1.081138 1.676673,2.164628 2.450944,3.244747 -3.328757,1.203069 -6.471192,2.18998 -9.154726,2.944945 -7.942895,2.235433 -25.484337,6.342221 -30.91034,8.049278 -3.680029,1.157738 -7.478199,2.241095 -12.417503,4.535126 a 40.786465,40.786465 0 0 0 11.63761,19.645161 c 4.806064,-4.432525 10.533866,-9.604338 13.280846,-11.500588 4.32759,-2.987347 23.348573,-15.972827 27.250405,-18.22858 0.673679,-0.390184 1.63603,-1.008573 2.78423,-1.783863 0.23879,0.380024 0.47504,0.758351 0.70469,1.135324 0.0498,0.08434 0.0991,0.166516 0.14886,0.249836 -3.05136,2.03526 -6.450759,4.259694 -10.22051,6.678028 -3.943504,2.530099 -15.546594,10.426178 -21.155495,14.69382 -3.327737,2.531616 -6.167834,4.592008 -11.941532,9.549826 A 40.786465,40.786465 0 0 0 46.435267,100 40.786465,40.786465 0 0 0 87.222021,59.21273 40.786465,40.786465 0 0 0 83.886101,43.173411 c -1.15321,1.010098 -2.22723,1.922737 -3.06394,2.625571 -3.31555,2.785147 -9.00657,6.949408 -17.4626,12.6081 -0.26927,-0.466392 -0.54797,-0.934765 -0.83552,-1.403189 5.58146,-3.813445 14.73492,-10.653141 17.5038,-13.276726 -5.81212,3.994312 -13.13625,7.293293 -19.812063,9.75227 -0.842349,-1.204087 -1.737826,-2.406785 -2.68687,-3.601725 -0.201187,-0.253011 -0.404104,-0.503645 -0.607325,-0.752595 8.492608,-3.333839 17.246758,-7.262647 22.800788,-10.51825 0.42626,-0.249887 0.90775,-0.538893 1.38156,-0.823163 A 40.786465,40.786465 0 0 0 46.435267,18.425979 Z m 8.260993,5.823956 0.108691,1.13172 c 0.221512,0.02845 0.397134,0.200345 0.432699,0.419824 l 1.135327,0.06388 -1.137385,0.10869 c -0.03962,0.207286 -0.205883,0.368803 -0.416216,0.40437 l -0.06233,1.164688 -0.1056,-1.166749 c -0.199158,-0.03658 -0.357578,-0.189717 -0.40025,-0.385826 l -1.170355,-0.06336 1.162111,-0.1056 c 0.0254,-0.213382 0.18315,-0.384916 0.388403,-0.430641 z m -19.190311,12.658579 0.108691,1.13172 c 0.221511,0.02845 0.398666,0.200345 0.433218,0.419823 l 1.134808,0.06388 -1.136869,0.10869 c -0.03862,0.207284 -0.20537,0.36982 -0.415706,0.40437 l -0.06285,1.164688 -0.106114,-1.166749 c -0.199156,-0.03658 -0.357575,-0.189717 -0.400247,-0.385825 l -1.170355,-0.06285 1.16211,-0.106116 c 0.0254,-0.213381 0.183164,-0.384917 0.389433,-0.430641 z m 42.508802,33.468432 0.10869,1.131718 c 0.22151,0.02845 0.39815,0.200345 0.4327,0.419825 l 1.13533,0.06388 -1.13687,0.108691 c -0.0396,0.208301 -0.20638,0.369818 -0.41468,0.404368 l -0.0634,1.164687 -0.1056,-1.166233 c -0.19915,-0.03657 -0.35757,-0.190232 -0.40025,-0.386339 l -1.17035,-0.06285 1.16211,-0.105598 c 0.0254,-0.213381 0.18315,-0.385431 0.3884,-0.431157 z m -3.61203,8.964131 0.10869,1.13172 c 0.22151,0.02845 0.39815,0.200346 0.4327,0.419823 l 1.13481,0.06388 -1.13687,0.108691 c -0.0386,0.207285 -0.20637,0.369805 -0.41467,0.403338 l -0.0628,1.164691 -0.10559,-1.166752 c -0.19916,-0.03658 -0.35758,-0.189717 -0.40025,-0.385823 l -1.17087,-0.06285 1.16263,-0.106114 c 0.0254,-0.213384 0.18263,-0.384918 0.38788,-0.430644 z m -42.737513,8.536066 0.108691,1.131205 c 0.221511,0.02845 0.397133,0.199832 0.432701,0.419312 l 1.135324,0.06439 -1.137385,0.108691 c -0.03862,0.207282 -0.205869,0.369819 -0.415188,0.404368 l -0.06336,1.164172 -0.1056,-1.166233 c -0.199157,-0.03556 -0.357577,-0.19023 -0.400249,-0.386334 l -1.170355,-0.06285 1.162112,-0.105598 c 0.0254,-0.213381 0.183163,-0.384916 0.389431,-0.430641 z"
       style="display:inline;fill:#0000ff;stroke-width:1.01610529"
       inkscape:connector-curvature="0" />
  </g>
  <g
     id="g4275"
     inkscape:groupmode="layer"
     inkscape:label="Dwgs.User-disabled"
     style="display:none"
     sodipodi:insensitive="true" />
  <g
     id="g4277"
     inkscape:groupmode="layer"
     inkscape:label="Cmts.User-disabled"
     style="display:none"
     sodipodi:insensitive="true" />
  <g
     id="g4279"
     inkscape:groupmode="layer"
     inkscape:label="Eco1.User-disabled"
     style="display:none"
     sodipodi:insensitive="true" />
  <g
     id="g4281"
     inkscape:groupmode="layer"
     inkscape:label="Eco2.User-disabled"
     style="display:none"
     sodipodi:insensitive="true" />
  <g
     id="g4283"
     inkscape:groupmode="layer"
     inkscape:label="Edge.Cuts"
     style="display:none">
    <path
       style="display:inline;fill:none;stroke:#000000;stroke-width:0.31799999;stroke-linecap:round;stroke-linejoin:round;stroke-miterlimit:4;stroke-dasharray:none;stroke-opacity:1;paint-order:normal"
       d="M46.494608 18.26699L45.441871 18.28029L44.395702 18.32002L43.356421 18.38586L42.324348 18.47749L41.299804 18.594589L40.28311 18.736835L39.274585 18.90391L38.27455 19.095493L37.283325 19.311263L36.301231 19.5509L35.328587 19.814083L34.365715 20.100493L33.412935 20.409809L32.470567 20.741711L31.538931 21.095878L30.618348 21.47199L29.709138 21.869726L28.811622 22.288767L27.926119 22.728792L27.05295 23.18948L26.192436 23.670511L25.344897 24.171565L24.510653 24.692322L23.690025 25.232461L22.883332 25.791661L22.090896 26.369603L21.313037 26.965966L20.550074 27.58043L19.802329 28.212674L19.070122 28.862379L18.353773 29.529223L17.653602 30.212886L16.96993 30.913048L16.303077 31.629389L15.653363 32.361588L15.021109 33.109325L14.406636 33.87228L13.810263 34.650132L13.232311 35.442561L12.6731 36.249246L12.132951 37.069868L11.612184 37.904105L11.111119 38.751638L10.630077 39.612146L10.169377 40.485308L9.7293417 41.370805L9.3102896 42.268317L8.9125416 43.177522L8.5364181 44.0981L8.1822394 45.029731L7.8503258 45.972095L7.5409978 46.924872L7.2545756 47.88774L6.9913796 48.86038L6.7517303 49.842471L6.5359478 50.833693L6.3443526 51.833726L6.1772651 52.842249L6.0350056 53.858941L5.9178944 54.883484L5.8262524 55.915555L5.7603994 56.954835L5.7206554 58.001004L5.7073414 59.053741L5.7290784 60.169661L5.7813034 61.283942L5.8639454 62.395964L5.9769319 63.505105L6.1201913 64.610743L6.2936515 65.712257L6.4972407 66.809026L6.7308869 67.900427L5.0005316 68.817557L3.323192 69.752644L1.7067219 70.704937L0.15897539 71.673687L1.2561828 72.100722L2.7948169 71.252047L4.2613959 70.482072L5.6634569 69.782094L7.0085369 69.143413L7.3948346 70.544275L7.8297572 71.92741L8.3126109 73.291647L8.8427021 74.635815L9.4193372 75.958743L10.041823 77.259258L10.709465 78.536192L11.42157 79.788372L12.177445 81.014627L12.976395 82.213786L13.817727 83.384679L14.700748 84.526134L15.624764 85.636979L16.589081 86.716045L17.593005 87.76216L18.635844 88.774152L14.780048 92.352301L12.04951 94.902028L11.927427 96.242373L16.064285 92.561728L19.496097 89.576712L20.200437 90.186815L20.917079 90.77951L21.64569 91.354669L22.385941 91.912168L23.1375 92.45188L23.900036 92.97368L24.673219 93.477442L25.456716 93.96304L26.250198 94.430348L27.053333 94.879241L27.86579 95.309592L28.687239 95.721275L29.517347 96.114166L30.355785 96.488137L31.202221 96.843063L32.056324 97.178819L32.917763 97.495278L33.786206 97.792315L34.661325 98.069803L35.542787 98.327618L36.430261 98.565632L37.323416 98.783721L38.221921 98.981758L39.125445 99.159618L40.033658 99.317174L40.946227 99.454301L41.862823 99.570874L42.783114 99.666764L43.706769 99.741854L44.633457 99.796004L45.562848 99.829094L46.494609 99.841004L47.547346 99.827694L48.593514 99.787954L49.632795 99.722104L50.664866 99.630464L51.689408 99.513353L52.706101 99.371093L53.714624 99.204006L54.714656 99.012411L55.705878 98.796628L56.687969 98.556979L57.660609 98.293783L58.623477 98.007361L59.576254 97.698033L60.518617 97.366119L61.450249 97.011941L62.370827 96.635817L63.280032 96.238069L64.177543 95.819017L65.06304 95.378981L65.936202 94.918282L66.79671 94.43724L67.644243 93.936175L68.47848 93.415408L69.299102 92.875259L70.105787 92.316048L70.898216 91.738096L71.676068 91.141723L72.439022 90.52725L73.186759 89.894996L73.918958 89.245282L74.635299 88.578429L75.335461 87.894757L76.019125 87.194587L76.685969 86.478237L77.335673 85.74603L77.967917 84.998285L78.582381 84.235322L79.178744 83.457463L79.756686 82.665027L80.315886 81.858335L80.856025 81.037706L81.376782 80.203462L81.877836 79.355923L82.358867 78.495409L82.819556 77.622241L83.25958 76.736738L83.678621 75.839222L84.076357 74.930012L84.452469 74.009429L84.806636 73.077793L85.138538 72.135425L85.447854 71.182645L85.734264 70.219773L85.997448 69.24713L86.237085 68.265036L86.452855 67.273811L86.644438 66.273776L86.811513 65.265251L86.953759 64.248556L87.070858 63.224013L87.162488 62.19194L87.228328 61.152659L87.268058 60.10649L87.281358 59.053753L87.265328 58.02077L87.223198 56.989686L87.155068 55.960983L87.061048 54.935145L86.941234 53.912655L86.795726 52.893994L86.624624 51.879645L86.428029 50.870092L86.206041 49.865817L85.958761 48.867302L85.686288 47.875031L85.388724 46.889486L85.066168 45.91115L84.718721 44.940506L84.346484 43.978035L83.949556 43.024222L84.940886 42.143788L85.977959 41.196149L87.051028 40.182748L88.150345 39.105029L89.266159 37.964434L90.388725 36.762405L91.508293 35.500386L92.615114 34.17982L93.699442 32.802148L94.230124 32.092349L94.751526 31.368815L95.262431 30.631725L95.76162 29.881262L96.247874 29.117604L96.719975 28.340933L97.176704 27.551428L97.616842 26.74927L98.039171 25.934639L98.442473 25.107716L98.825529 24.268681L99.18712 23.417714L99.526028 22.554996L99.841035 21.680707L99.243243 22.42808L98.640068 23.157083L98.03214 23.867943L97.420086 24.560893L96.186122 25.893975L94.943209 27.158168L93.696384 28.35531L92.450678 29.487238L91.211127 30.555792L89.982765 31.562809L88.770626 32.510128L87.579743 33.399587L86.415151 34.233023L85.281885 35.012276L84.184977 35.739182L83.129463 36.415581L81.162751 37.62421L80.450284 36.511034L79.705317 35.425865L78.928708 34.36918L78.121314 33.341458L77.283991 32.343179L76.417596 31.374819L75.522987 30.436858L74.60102 29.529775L73.652552 28.654047L72.67844 27.810153L71.679542 26.998572L70.656714 26.219782L69.610813 25.474261L68.542696 24.762489L67.45322 24.084943L66.343242 23.442103L65.213619 22.834446L64.065208 22.262451L62.898866 21.726597L61.715449 21.227362L60.515816 20.765225L59.300822 20.340663L58.071325 19.954157L56.828182 19.606183L55.57225 19.29722L54.304385 19.027748L53.025445 18.798245L51.736286 18.609188L50.437766 18.461057L49.130741 18.354329L47.816069 18.289489L46.494606 18.267009L46.494606 18.267009"
       id="path4668"
       inkscape:connector-curvature="0"
       sodipodi:nodetypes="cccccccccccccccc" />
  </g>
  <g
     id="g4285"
     inkscape:groupmode="layer"
     inkscape:label="Margin-disabled"
     style="display:none"
     sodipodi:insensitive="true" />
  <g
     id="g4287"
     inkscape:groupmode="layer"
     inkscape:label="B.CrtYd-disabled"
     style="display:none"
     sodipodi:insensitive="true" />
  <g
     id="g4289"
     inkscape:groupmode="layer"
     inkscape:label="F.CrtYd-disabled"
     style="display:none"
     sodipodi:insensitive="true" />
  <g
     id="g4291"
     inkscape:groupmode="layer"
     inkscape:label="B.Fab-disabled"
     style="display:none"
     sodipodi:insensitive="true" />
  <g
     id="g4293"
     inkscape:groupmode="layer"
     inkscape:label="F.Fab-disabled"
     style="display:none"
     sodipodi:insensitive="true" />
  <g
     id="g4295"
     inkscape:groupmode="layer"
     inkscape:label="Drill"
     style="display:none"
     sodipodi:insensitive="true" />
</svg>
